{"title":"Jatt &amp; Juliet 2013 Hindi Punjabi Movies DVDScr Rip New Sourc","uid":8646847,"size":741364246,"categoryP":"video","categoryS":"movies","magnet":"?xt=urn:btih:bbc60b000fb4cf15777e7ce40e176a3cabee8f01&amp;dn=Jatt+%26amp%3B+Juliet+2013+Hindi+Punjabi+Movies+DVDScr+Rip+New+Sourc&amp;tr=udp%3A%2F%2Ftracker.openbittorrent.com%3A80&amp;tr=udp%3A%2F%2Fopen.demonii.com%3A1337&amp;tr=udp%3A%2F%2Ftracker.coppersurfer.tk%3A6969&amp;tr=udp%3A%2F%2Fexodus.desync.com%3A6969","seeders":1,"leechers":0,"uploader":"basicssom","files":2,"time":1373009433,"description":"Jatt &amp; Juliet 2013 Hindi Punjabi Movies DVDScr Rip New Source Sample Included ~ â˜»rDXâ˜»\n\nScreen Shots :\n &lt;a href=&quot;\nhttp://myimghosting.serveftp.com/13/JattJuliet.html&quot; rel=&quot;nofollow&quot; target=&quot;_NEW&quot;&gt;\nhttp://myimghosting.serveftp.com/13/JattJuliet.html&lt;/a&gt;\n &lt;a href=&quot;\nhttp://myimghost.cwahi.net/JattJuliet.html&quot; rel=&quot;nofollow&quot; target=&quot;_NEW&quot;&gt;\nhttp://myimghost.cwahi.net/JattJuliet.html&lt;/a&gt;\n &lt;a href=&quot;\nhttp://users2.jabry.com/myimghost/Jatt&amp;Juliet/Jatt&amp;Juliet1.jpg&quot; rel=&quot;nofollow&quot; target=&quot;_NEW&quot;&gt;\nhttp://users2.jabry.com/myimghost/Jatt&amp;Juliet/Jatt&amp;Juliet1.jpg&lt;/a&gt;\n &lt;a href=&quot;\nhttp://users2.jabry.com/myimghost/Jatt&amp;Juliet/Jatt&amp;Juliet2.jpg&quot; rel=&quot;nofollow&quot; target=&quot;_NEW&quot;&gt;\nhttp://users2.jabry.com/myimghost/Jatt&amp;Juliet/Jatt&amp;Juliet2.jpg&lt;/a&gt;\n &lt;a href=&quot;\nhttp://users2.jabry.com/myimghost/Jatt&amp;Juliet/Jatt&amp;Juliet3.jpg&quot; rel=&quot;nofollow&quot; target=&quot;_NEW&quot;&gt;\nhttp://users2.jabry.com/myimghost/Jatt&amp;Juliet/Jatt&amp;Juliet3.jpg&lt;/a&gt;\n &lt;a href=&quot;\nhttp://users2.jabry.com/myimghost/Jatt&amp;Juliet/Jatt&amp;Juliet4.jpg&quot; rel=&quot;nofollow&quot; target=&quot;_NEW&quot;&gt;\nhttp://users2.jabry.com/myimghost/Jatt&amp;Juliet/Jatt&amp;Juliet4.jpg&lt;/a&gt;\n &lt;a href=&quot;\nhttp://users2.jabry.com/myimghost/Jatt&amp;Juliet/Jatt&amp;Juliet5.jpg&quot; rel=&quot;nofollow&quot; target=&quot;_NEW&quot;&gt;\nhttp://users2.jabry.com/myimghost/Jatt&amp;Juliet/Jatt&amp;Juliet5.jpg&lt;/a&gt;\n\nFormat                                   : AVI\nFormat/Info                              : Audio Video Interleave\nFile size                                : 687 MiB\nDuration                                 : 2h 13mn\nOverall bit rate                         : 719 Kbps\nWriting library                          : MPlayer\n\nVideo\nID                                       : 0\nFormat                                   : MPEG-4 Visual\nFormat profile                           : Advanced Simple@L5\nFormat settings, BVOP                    : 1\nFormat settings, QPel                    : No\nFormat settings, GMC                     : No warppoints\nFormat settings, Matrix                  : Default (H.263)\nMuxing mode                              : Packed bitstream\nCodec ID                                 : XVID\nCodec ID/Hint                            : XviD\nDuration                                 : 2h 13mn\nBit rate                                 : 634 Kbps\nWidth                                    : 640 pixels\nHeight                                   : 256 pixels\nDisplay aspect ratio                     : 2.500\nFrame rate                               : 23.976 fps\nColor space                              : YUV\nChroma subsampling                       : 4:2:0\nBit depth                                : 8 bits\nScan type                                : Progressive\nCompression mode                         : Lossy\nBits/(Pixel*Frame)                       : 0.161\nStream size                              : 605 MiB (88%)\nWriting library                          : XviD 1.2.1 (UTC 2008-12-04)\n\nAudio\nID                                       : 1\nFormat                                   : MPEG Audio\nFormat version                           : Version 1\nFormat profile                           : Layer 3\nMode                                     : Joint stereo\nMode extension                           : MS Stereo\nCodec ID                                 : 55\nCodec ID/Hint                            : MP3\nDuration                                 : 2h 13mn\nBit rate mode                            : Constant\nBit rate                                 : 80.0 Kbps\nChannel(s)                               : 2 channels\nSampling rate                            : 32.0 KHz\nCompression mode                         : Lossy\nStream size                              : 76.4 MiB (11%)\nAlignment                                : Split accross interleaves\nInterleave, duration                     : 500 ms (11.99 video frames)\nInterleave, preload duration             : 500 ms","torrent":{"xt":"urn:btih:bbc60b000fb4cf15777e7ce40e176a3cabee8f01","amp;dn":"Jatt+%26amp%3B+Juliet+2013+Hindi+Punjabi+Movies+DVDScr+Rip+New+Sourc","amp;tr":["udp%3A%2F%2Ftracker.openbittorrent.com%3A80","udp%3A%2F%2Fopen.demonii.com%3A1337","udp%3A%2F%2Ftracker.coppersurfer.tk%3A6969","udp%3A%2F%2Fexodus.desync.com%3A6969"],"infoHash":"bbc60b000fb4cf15777e7ce40e176a3cabee8f01","infoHashBuffer":{"type":"Buffer","data":[187,198,11,0,15,180,207,21,119,126,124,228,14,23,106,60,171,238,143,1]},"announce":[],"urlList":[]}}